<?xml version="1.0" encoding="UTF-8"?>
<svg id="Layer_6" data-name="Layer 6" xmlns="http://www.w3.org/2000/svg" viewBox="0 0 24 24">
  <defs>
    <style>
      .cls-1 {
        fill: #008ca0;
      }
    </style>
  </defs>
  <path class="cls-1" d="M22.05,13.14c.27-6.26-10.05-11.14-10.05-11.14,0,0-10.32,4.88-10.05,11.14,0,0,0,.57,0,.86,0,4.42,4.5,8.01,10.06,8.01s10.06-3.58,10.06-8.01c0-.29,0-.86,0-.86ZM12,20c-4.42,0-8-2.57-8-5.75s3.58-5.75,8-5.75,8,2.57,8,5.75-3.58,5.75-8,5.75Z"/>
  <g>
    <path class="cls-1" d="M9,13.9v4.19c0,.22.18.4.4.4h5.19c.22,0,.4-.18.4-.4v-4.19c0-.22-.18-.4-.4-.4h-5.19c-.22,0-.4.18-.4.4ZM11.25,17.5l.41-1.41c-.18-.12-.31-.31-.31-.54,0-.36.29-.65.65-.65s.65.29.65.65c0,.23-.13.42-.31.54l.41,1.41h-1.5Z"/>
    <path class="cls-1" d="M10.5,13.5h-1v-1.7c0-.99.81-1.8,1.8-1.8h1.41c.99,0,1.8.81,1.8,1.8v.7h-1v-.7c0-.44-.36-.8-.8-.8h-1.41c-.44,0-.8.36-.8.8v1.7Z"/>
  </g>
</svg>