<?xml version="1.0" encoding="UTF-8"?>
<svg id="Layer_6" data-name="Layer 6" xmlns="http://www.w3.org/2000/svg" viewBox="0 0 24 24">
  <defs>
    <style>
      .cls-1 {
        fill: #008ca0;
      }
    </style>
  </defs>
  <path class="cls-1" d="M17.53,8.12c.15-3.44-5.53-6.12-5.53-6.12,0,0-5.68,2.68-5.53,6.12,0,0,0,.31,0,.47,0,2.43,2.48,4.4,5.53,4.4s5.53-1.97,5.53-4.4c0-.16,0-.47,0-.47ZM12,11.9c-2.43,0-4.4-1.42-4.4-3.16s1.97-3.16,4.4-3.16,4.4,1.42,4.4,3.16-1.97,3.16-4.4,3.16Z"/>
  <g>
    <path class="cls-1" d="M12.38,18.76c0-.21-.17-.38-.38-.38s-.38.17-.38.38c0,.14.07.25.18.32l-.24.83h.88l-.24-.83c.11-.07.18-.18.18-.32Z"/>
    <path class="cls-1" d="M16.35,13.65c-.09-.42-.56-.64-.94-.45-.99.51-2.16.8-3.41.8s-2.42-.29-3.41-.8c-.39-.2-.85.02-.94.45l-1.65,7.7c-.07.34.18.66.53.66h5.48s5.48,0,5.48,0c.34,0,.6-.32.53-.66l-1.65-7.7ZM13.76,20.26c0,.13-.11.24-.24.24h-3.06c-.13,0-.24-.11-.24-.24v-2.47c0-.13.11-.24.24-.24h.06v-1c0-.58.47-1.06,1.06-1.06h.83c.58,0,1.06.47,1.06,1.06v.41h-.59v-.41c0-.26-.21-.47-.47-.47h-.83c-.26,0-.47.21-.47.47v1h2.41c.13,0,.24.11.24.24v2.47Z"/>
  </g>
</svg>